# xmcd CD database file
#
# Track frame offsets:
#	150
#	13337
#	28925
#	51412
#	75537
#	91165
#	104547
#	121700
#	154577
#	180145
#	192007
#	206270
#
# Disc length: 3001 seconds
#
# Revision: 0
# Processed by: cddbd v1.5.1PL0 Copyright (c) Steve Scherf et al.
# Submitted via: CDex 1.51
#
DISCID=8b0bb70c
DTITLE=Halfacre Gunroom - Wrecked
DYEAR=2003
DGENRE=Country
TTITLE0=Amy
TTITLE1=Dirty Yankee Punk Rock Girl #2
TTITLE2=Car Date
TTITLE3=The Day Is Done
TTITLE4=Miles Away
TTITLE5=1989
TTITLE6=Lorna
TTITLE7=The Wheels Rolled North
TTITLE8=Wrecked
TTITLE9=Palisade
TTITLE10=East Memphis Girls
TTITLE11=The Winter Wind
EXTD=YEAR: 2003
EXTT0=
EXTT1=
EXTT2=
EXTT3=
EXTT4=
EXTT5=
EXTT6=
EXTT7=
EXTT8=
EXTT9=
EXTT10=
EXTT11=
PLAYORDER=
